<svg width="240" height="699" viewBox="0 0 240 699" fill="none" xmlns="http://www.w3.org/2000/svg">
<path opacity="0.4" d="M24.7198 284.898L-101.232 151.431C-101.232 151.431 -118.265 137.592 -135.746 131.79L-148.744 130.897C-177.88 130.004 -198.049 151.877 -197.153 150.985C-235.253 203.211 -194.464 238.92 -194.464 238.92L-99.8875 337.124C-85.5443 348.283 -76.1314 365.246 -76.1314 384.44C-76.1314 417.472 -103.025 443.808 -136.194 443.808C-152.778 443.808 -168.018 437.113 -178.775 426.4L-179.224 426.847L-270.662 337.124C-273.8 334 -289.04 317.93 -291.729 314.806C-319.968 281.773 -337 238.92 -337 192.497C-337 128.219 -304.727 71.5288 -254.526 36.2644C-253.63 36.2644 -253.182 35.8182 -252.733 35.372C-251.837 34.9258 -250.94 34.0328 -250.043 33.5865C-224.046 16.624 -202.532 10.3747 -202.532 10.3747C-148.744 -6.58767 -103.473 1.89357 -69.408 16.624C-48.3414 25.1052 -29.5159 37.604 -12.9315 52.3338C-7.10449 57.2441 9.92862 76.6648 9.92862 76.6648L188.772 274.857C188.772 274.857 303.966 384.219 184.29 501.171L-4.86284 697.578H-183.257C-182.809 696.685 -181.912 696.238 -181.464 695.346L83.8862 428.857C83.8862 428.857 122.882 385.559 80.3004 343.599L24.7202 284.677" stroke="url(#paint0_linear_43_10)" stroke-width="1.07001"/>
<defs>
<linearGradient id="paint0_linear_43_10" x1="286.638" y1="-73.5096" x2="-511.389" y2="770.91" gradientUnits="userSpaceOnUse">
<stop stop-color="#004C9B"/>
<stop offset="1" stop-color="#004C9B"/>
</linearGradient>
</defs>
</svg>
